<svg width="200" height="200" viewBox="0 0 200 200" fill="none" xmlns="http://www.w3.org/2000/svg">
<g clip-path="url(#clip0_2_2)">
<rect width="200" height="200" fill="#121212"/>
<path d="M49.7335 31.24C48.6135 31.24 47.6295 31.032 46.7815 30.616C45.9495 30.184 45.3015 29.584 44.8375 28.816C44.3895 28.032 44.1655 27.112 44.1655 26.056V18.424C44.1655 17.352 44.3895 16.432 44.8375 15.664C45.3015 14.896 45.9495 14.304 46.7815 13.888C47.6295 13.456 48.6135 13.24 49.7335 13.24C50.8695 13.24 51.8455 13.456 52.6615 13.888C53.4935 14.304 54.1415 14.896 54.6055 15.664C55.0695 16.432 55.3015 17.352 55.3015 18.424H52.2775C52.2775 17.592 52.0535 16.96 51.6055 16.528C51.1735 16.096 50.5495 15.88 49.7335 15.88C48.9175 15.88 48.2855 16.096 47.8375 16.528C47.3895 16.96 47.1655 17.584 47.1655 18.4V26.056C47.1655 26.872 47.3895 27.504 47.8375 27.952C48.2855 28.384 48.9175 28.6 49.7335 28.6C50.5495 28.6 51.1735 28.384 51.6055 27.952C52.0535 27.504 52.2775 26.872 52.2775 26.056H55.3015C55.3015 27.096 55.0695 28.008 54.6055 28.792C54.1415 29.576 53.4935 30.184 52.6615 30.616C51.8455 31.032 50.8695 31.24 49.7335 31.24ZM64.0281 31.24C62.9081 31.24 61.9321 31.032 61.1001 30.616C60.2841 30.184 59.6521 29.584 59.2041 28.816C58.7721 28.032 58.5561 27.112 58.5561 26.056V18.424C58.5561 17.368 58.7721 16.456 59.2041 15.688C59.6521 14.904 60.2841 14.304 61.1001 13.888C61.9321 13.456 62.9081 13.24 64.0281 13.24C65.1641 13.24 66.1401 13.456 66.9561 13.888C67.7721 14.304 68.3961 14.904 68.8281 15.688C69.2761 16.456 69.5001 17.36 69.5001 18.4V26.056C69.5001 27.112 69.2761 28.032 68.8281 28.816C68.3961 29.584 67.7721 30.184 66.9561 30.616C66.1401 31.032 65.1641 31.24 64.0281 31.24ZM64.0281 28.6C64.8441 28.6 65.4601 28.384 65.8761 27.952C66.2921 27.504 66.5001 26.872 66.5001 26.056V18.424C66.5001 17.592 66.2921 16.96 65.8761 16.528C65.4601 16.096 64.8441 15.88 64.0281 15.88C63.2121 15.88 62.5961 16.096 62.1801 16.528C61.7641 16.96 61.5561 17.592 61.5561 18.424V26.056C61.5561 26.872 61.7641 27.504 62.1801 27.952C62.6121 28.384 63.2281 28.6 64.0281 28.6ZM78.4668 31.24C77.2668 31.24 76.2268 31.04 75.3468 30.64C74.4668 30.24 73.7868 29.672 73.3068 28.936C72.8428 28.184 72.6028 27.304 72.5868 26.296H75.5868C75.5868 27.016 75.8428 27.584 76.3548 28C76.8828 28.4 77.5948 28.6 78.4908 28.6C79.3548 28.6 80.0268 28.4 80.5068 28C81.0028 27.6 81.2508 27.048 81.2508 26.344C81.2508 25.752 81.0748 25.24 80.7228 24.808C80.3868 24.36 79.8988 24.056 79.2588 23.896L77.2428 23.344C75.8668 22.992 74.8028 22.36 74.0508 21.448C73.3148 20.536 72.9468 19.432 72.9468 18.136C72.9468 17.144 73.1708 16.28 73.6188 15.544C74.0668 14.808 74.6988 14.24 75.5148 13.84C76.3468 13.44 77.3228 13.24 78.4428 13.24C80.1388 13.24 81.4828 13.68 82.4748 14.56C83.4668 15.424 83.9708 16.592 83.9868 18.064H80.9868C80.9868 17.376 80.7628 16.84 80.3148 16.456C79.8668 16.056 79.2348 15.856 78.4188 15.856C77.6348 15.856 77.0268 16.04 76.5948 16.408C76.1628 16.776 75.9468 17.296 75.9468 17.968C75.9468 18.576 76.1068 19.096 76.4268 19.528C76.7628 19.944 77.2428 20.24 77.8668 20.416L79.9548 20.992C81.3468 21.344 82.4108 21.976 83.1468 22.888C83.8828 23.784 84.2508 24.896 84.2508 26.224C84.2508 27.216 84.0108 28.096 83.5308 28.864C83.0508 29.616 82.3788 30.2 81.5148 30.616C80.6508 31.032 79.6348 31.24 78.4668 31.24ZM86.9534 31V13.48H90.5054L92.2334 19.048C92.4094 19.608 92.5454 20.12 92.6414 20.584C92.7374 21.048 92.8014 21.384 92.8334 21.592C92.8814 21.384 92.9534 21.048 93.0494 20.584C93.1614 20.12 93.2974 19.608 93.4574 19.048L95.1134 13.48H98.6654V31H95.8574V25.552C95.8574 24.752 95.8734 23.88 95.9054 22.936C95.9534 21.992 96.0094 21.048 96.0734 20.104C96.1374 19.16 96.2014 18.264 96.2654 17.416C96.3454 16.568 96.4174 15.824 96.4814 15.184L94.1054 23.464H91.4894L89.0654 15.184C89.1454 15.792 89.2254 16.512 89.3054 17.344C89.3854 18.16 89.4574 19.04 89.5214 19.984C89.5854 20.912 89.6414 21.856 89.6894 22.816C89.7374 23.776 89.7614 24.688 89.7614 25.552V31H86.9534ZM102.16 31V28.36H105.688V16.12H102.16V13.48H112.24V16.12H108.712V28.36H112.24V31H102.16ZM121.687 31.24C120.567 31.24 119.583 31.032 118.735 30.616C117.903 30.184 117.255 29.584 116.791 28.816C116.343 28.032 116.119 27.112 116.119 26.056V18.424C116.119 17.352 116.343 16.432 116.791 15.664C117.255 14.896 117.903 14.304 118.735 13.888C119.583 13.456 120.567 13.24 121.687 13.24C122.823 13.24 123.799 13.456 124.615 13.888C125.447 14.304 126.095 14.896 126.559 15.664C127.023 16.432 127.255 17.352 127.255 18.424H124.231C124.231 17.592 124.007 16.96 123.559 16.528C123.127 16.096 122.503 15.88 121.687 15.88C120.871 15.88 120.239 16.096 119.791 16.528C119.343 16.96 119.119 17.584 119.119 18.4V26.056C119.119 26.872 119.343 27.504 119.791 27.952C120.239 28.384 120.871 28.6 121.687 28.6C122.503 28.6 123.127 28.384 123.559 27.952C124.007 27.504 124.231 26.872 124.231 26.056H127.255C127.255 27.096 127.023 28.008 126.559 28.792C126.095 29.576 125.447 30.184 124.615 30.616C123.799 31.032 122.823 31.24 121.687 31.24ZM129.621 31L134.037 13.48H137.901L142.341 31H139.269L138.309 26.752H133.653L132.693 31H129.621ZM134.205 24.304H137.757L136.701 19.6C136.525 18.816 136.373 18.112 136.245 17.488C136.117 16.848 136.029 16.384 135.981 16.096C135.933 16.384 135.845 16.848 135.717 17.488C135.605 18.112 135.453 18.808 135.261 19.576L134.205 24.304ZM145.644 31V13.48H148.644V28.216H156.084V31H145.644Z" fill="#EEEEEE"/>
<rect x="132.943" y="80.1969" width="16.816" height="36.4346" rx="8.40799" transform="rotate(76.5175 132.943 80.1969)" fill="#DDDDDD"/>
<rect x="109.064" y="84.4599" width="16.816" height="36.4346" rx="8.40799" transform="rotate(62.4921 109.064 84.4599)" fill="#DDDDDD"/>
<path d="M116.029 84.5143C121.83 86.3274 122.072 95.8461 121.468 100.379" stroke="#F2A988" stroke-width="1.81309" stroke-linecap="round"/>
<rect x="72.1376" y="148.865" width="19.6187" height="41.5667" rx="9.80933" transform="rotate(-89.6912 72.1376 148.865)" fill="#DDDDDD"/>
<rect x="62.7672" y="166.047" width="19.6187" height="39.2373" rx="9.80933" transform="rotate(-127.439 62.7672 166.047)" fill="#DDDDDD"/>
<path d="M70.7012 135.281C77.047 134.828 80.2199 142.987 82.4863 150.692" stroke="#F2A988" stroke-width="1.81309" stroke-linecap="round"/>
<rect x="131.925" y="78.0039" width="47.2514" height="61.9033" rx="16.816" transform="rotate(27.0019 131.925 78.0039)" fill="#909090"/>
<rect x="123.99" y="85.8427" width="36.4347" height="60.2573" rx="16.816" transform="rotate(27.395 123.99 85.8427)" fill="#F4F4F4"/>
<rect x="125.233" y="75.968" width="42.8486" height="56.1353" rx="16.816" transform="rotate(27.395 125.233 75.968)" fill="#F4F4F4"/>
<path d="M104.697 123.043C107.235 130.658 127.209 137.396 136.879 139.814" stroke="#F2A988" stroke-width="1.81309" stroke-linecap="round"/>
<path d="M103.337 125.309C105.875 132.924 125.849 139.663 135.519 142.08" stroke="#EFCE9F" stroke-width="1.81309" stroke-linecap="round"/>
<rect x="113.068" y="178.887" width="19.6187" height="40.3809" rx="9.80933" transform="rotate(-148.685 113.068 178.887)" fill="#DDDDDD"/>
<rect x="114.068" y="197.67" width="19.6187" height="39.2373" rx="9.80933" transform="rotate(-171.488 114.068 197.67)" fill="#DDDDDD"/>
<path d="M97.8977 172.449C101.887 174.988 110.589 175.622 117.388 175.622" stroke="#F2A988" stroke-width="1.81309" stroke-linecap="round"/>
<rect x="154.211" y="96.8208" width="16.816" height="36.4346" rx="8.40799" transform="rotate(44.9863 154.211 96.8208)" fill="#DDDDDD"/>
<rect x="146.801" y="114.001" width="16.816" height="36.4347" rx="8.40799" transform="rotate(82.7338 146.801 114.001)" fill="#DDDDDD"/>
<path d="M145.038 106.271C154.112 107.214 156.065 114.521 155.908 118.056" stroke="#F2A988" stroke-width="1.81309" stroke-linecap="round"/>
<circle cx="152.043" cy="74.3658" r="21.7207" transform="rotate(10.1591 152.043 74.3658)" fill="#DDDDDD"/>
<circle cx="147.092" cy="74.1904" r="19.6187" transform="rotate(10.1591 147.092 74.1904)" fill="#212121"/>
<ellipse cx="145.437" cy="72.4956" rx="17.3491" ry="19.1683" transform="rotate(52.7249 145.437 72.4956)" fill="#303030"/>
<circle cx="139.587" cy="62.6278" r="2.8565" fill="#DDDDDD"/>
<path d="M148.565 138.121C175.906 147.507 165.296 187.906 161.215 202.596" stroke="#DDDDDD" stroke-width="5.71299" stroke-linecap="round"/>
<g filter="url(#filter0_d_2_2)">
<path d="M33.2501 44.9615C33.3387 44.0189 34.3173 43.4336 35.1898 43.8014L68.5097 57.851C69.0733 58.0886 69.4177 58.6644 69.3604 59.2734L65.9759 95.2755C65.8872 96.2182 64.9087 96.8035 64.0362 96.4356L30.7163 82.3861C30.1526 82.1484 29.8083 81.5727 29.8655 80.9637L33.2501 44.9615Z" fill="#DDDDDD"/>
</g>
<path d="M32.4627 45.9247C32.5429 44.9695 33.537 44.3749 34.4165 44.7562L66.6026 58.7085C67.1544 58.9477 67.492 59.5122 67.4417 60.1114L64.5078 95.0687C64.4277 96.0239 63.4336 96.6184 62.5541 96.2372L30.3679 82.2849C29.8162 82.0457 29.4785 81.4812 29.5288 80.882L32.4627 45.9247Z" fill="#BBBBBB"/>
<path d="M83.4241 127.398C84.727 127.982 85.9666 126.471 85.1395 125.307L65.3393 97.4469C65.1946 97.2433 64.9981 97.082 64.7702 96.9799L33.5801 83.0003C32.2772 82.4163 31.0376 83.927 31.8647 85.0909L51.6649 112.951C51.8096 113.155 52.0061 113.316 52.234 113.418L83.4241 127.398Z" fill="#DDDDDD"/>
<path d="M82.0092 128.039C83.3078 128.612 84.5369 127.113 83.7211 125.952L63.9754 97.8437C63.8286 97.6348 63.6276 97.4699 63.394 97.3669L31.9619 83.5114C30.6633 82.939 29.4342 84.4379 30.25 85.5992L49.9958 113.707C50.1425 113.916 50.3436 114.081 50.5772 114.184L82.0092 128.039Z" fill="#BBBBBB"/>
<g filter="url(#filter1_f_2_2)">
<circle cx="19" cy="100" r="4" fill="#EFCE9F"/>
</g>
<g filter="url(#filter2_f_2_2)">
<circle cx="184" cy="27" r="4" fill="#B9E599"/>
</g>
<g filter="url(#filter3_f_2_2)">
<circle cx="174" cy="135" r="4" fill="#81A8DF"/>
</g>
<g filter="url(#filter4_f_2_2)">
<circle cx="74" cy="189" r="4" fill="#99E5D6"/>
</g>
<g filter="url(#filter5_f_2_2)">
<circle cx="19" cy="173" r="4" fill="#CE94EB"/>
</g>
</g>
<defs>
<filter id="filter0_d_2_2" x="25.7787" y="37.1611" width="52.5655" height="65.9148" filterUnits="userSpaceOnUse" color-interpolation-filters="sRGB">
<feFlood flood-opacity="0" result="BackgroundImageFix"/>
<feColorMatrix in="SourceAlpha" type="matrix" values="0 0 0 0 0 0 0 0 0 0 0 0 0 0 0 0 0 0 127 0" result="hardAlpha"/>
<feOffset dx="2.44843"/>
<feGaussianBlur stdDeviation="3.26457"/>
<feComposite in2="hardAlpha" operator="out"/>
<feColorMatrix type="matrix" values="0 0 0 0 0.94902 0 0 0 0 0.662745 0 0 0 0 0.533333 0 0 0 1 0"/>
<feBlend mode="normal" in2="BackgroundImageFix" result="effect1_dropShadow_2_2"/>
<feBlend mode="normal" in="SourceGraphic" in2="effect1_dropShadow_2_2" result="shape"/>
</filter>
<filter id="filter1_f_2_2" x="10" y="91" width="18" height="18" filterUnits="userSpaceOnUse" color-interpolation-filters="sRGB">
<feFlood flood-opacity="0" result="BackgroundImageFix"/>
<feBlend mode="normal" in="SourceGraphic" in2="BackgroundImageFix" result="shape"/>
<feGaussianBlur stdDeviation="2.5" result="effect1_foregroundBlur_2_2"/>
</filter>
<filter id="filter2_f_2_2" x="175" y="18" width="18" height="18" filterUnits="userSpaceOnUse" color-interpolation-filters="sRGB">
<feFlood flood-opacity="0" result="BackgroundImageFix"/>
<feBlend mode="normal" in="SourceGraphic" in2="BackgroundImageFix" result="shape"/>
<feGaussianBlur stdDeviation="2.5" result="effect1_foregroundBlur_2_2"/>
</filter>
<filter id="filter3_f_2_2" x="165" y="126" width="18" height="18" filterUnits="userSpaceOnUse" color-interpolation-filters="sRGB">
<feFlood flood-opacity="0" result="BackgroundImageFix"/>
<feBlend mode="normal" in="SourceGraphic" in2="BackgroundImageFix" result="shape"/>
<feGaussianBlur stdDeviation="2.5" result="effect1_foregroundBlur_2_2"/>
</filter>
<filter id="filter4_f_2_2" x="65" y="180" width="18" height="18" filterUnits="userSpaceOnUse" color-interpolation-filters="sRGB">
<feFlood flood-opacity="0" result="BackgroundImageFix"/>
<feBlend mode="normal" in="SourceGraphic" in2="BackgroundImageFix" result="shape"/>
<feGaussianBlur stdDeviation="2.5" result="effect1_foregroundBlur_2_2"/>
</filter>
<filter id="filter5_f_2_2" x="10" y="164" width="18" height="18" filterUnits="userSpaceOnUse" color-interpolation-filters="sRGB">
<feFlood flood-opacity="0" result="BackgroundImageFix"/>
<feBlend mode="normal" in="SourceGraphic" in2="BackgroundImageFix" result="shape"/>
<feGaussianBlur stdDeviation="2.5" result="effect1_foregroundBlur_2_2"/>
</filter>
<clipPath id="clip0_2_2">
<rect width="200" height="200" fill="white"/>
</clipPath>
</defs>
</svg>
